<?xml version="1.0" encoding="UTF-8"?>
<svg id="Lag_1" xmlns="http://www.w3.org/2000/svg" version="1.1" viewBox="0 0 196.34 67.2">
  <!-- Generator: Adobe Illustrator 30.0.0, SVG Export Plug-In . SVG Version: 2.1.1 Build 123)  -->
  <defs>
    <style>
      .st0 {
        fill: #ffe44a;
      }

      .st1 {
        fill: #1d1d1b;
      }
    </style>
  </defs>
  <g>
    <rect x="55.06" y="31.65" width="9.14" height="2"/>
    <rect x="50.51" y="47.45" width="2" height="9.35" transform="translate(-21.77 51.69) rotate(-45)"/>
    <rect x="46.86" y="11.91" width="9.83" height="2" transform="translate(6.03 40.39) rotate(-45)"/>
    <rect x="31.28" width="2" height="9.87"/>
    <rect x="27.16" y="63.2" width="9.99" height="2"/>
    <rect x="25.22" y="59.79" width="13.88" height="2"/>
    <rect x="23.51" y="56.26" width="17.06" height="2"/>
    <path class="st0" d="M34.17,40.17c-1.36.02-2.87.02-4.21,0l.1,13.99h3.98l.13-14Z"/>
    <path class="st0" d="M46.29,23.6c-3.12-5.55-8.93-8.72-15.16-8.27-5.82.41-10.98,4.01-13.49,9.38-2.41,5.18-1.89,10.98,1.41,15.52.95,1.31,1.75,2.25,2.45,3.08,2.16,2.55,3.25,3.84,3.61,9.62,0,.16.01.25.02.34v.09h2.93l-.1-13.21c-.84-.02-1.43-.05-1.57-.09-1.57-.38-2.5-1.42-2.48-2.79.02-1.48,1.19-2.92,2.61-3.22,1.36-.29,2.6.49,3.33,2.07l.09.2v1.88c1.35,0,2.9,0,4.25-.02l.02-2.15.13-.23c.79-1.38,2.02-2.02,3.29-1.71,1.34.32,2.44,1.68,2.51,3.1.06,1.29-.72,2.34-2.09,2.81-.18.06-.89.11-1.87.14l-.13,13.23h3.42v-.12c0-.08-.01-.16-.02-.25-.47-5.19,1.53-7.52,3.84-10.21.74-.86,1.5-1.74,2.24-2.79,3.48-4.92,3.77-11.04.76-16.39Z"/>
    <path class="st0" d="M38.14,37.27c-.02-.53-.49-1.12-.98-1.24-.33-.08-.65.1-.95.55v1.56c.6-.02,1.06-.04,1.25-.06.71-.26.69-.65.69-.8Z"/>
    <path class="st0" d="M27.06,35.99s-.08,0-.12.01c-.51.11-1.02.75-1.03,1.29,0,.15,0,.59.95.82.15.02.54.04,1.09.05v-1.4c-.22-.39-.52-.78-.89-.78Z"/>
    <path d="M23.14,53.45c-.01-.15-.02-.3-.02-.45-.32-5.06-1.15-6.03-3.14-8.39-.69-.82-1.55-1.83-2.55-3.2-3.73-5.14-4.33-11.7-1.6-17.54,2.81-6.03,8.62-10.07,15.16-10.53,7.01-.5,13.54,3.06,17.04,9.29,3.4,6.04,3.07,12.96-.87,18.53-.8,1.13-1.63,2.09-2.36,2.94-2.18,2.54-3.75,4.37-3.36,8.7.01.11.02.24.02.37v.14s-1.99.13-1.99.13v-.19c-.01-.08-.02-.16-.03-.25-.47-5.19,1.53-7.52,3.84-10.21.74-.86,1.5-1.74,2.24-2.79,3.48-4.92,3.77-11.04.76-16.39-3.12-5.55-8.93-8.72-15.16-8.27-5.82.41-10.98,4.01-13.49,9.38-2.41,5.18-1.89,10.98,1.41,15.52.95,1.31,1.75,2.25,2.45,3.08,2.16,2.55,3.25,3.84,3.61,9.62,0,.16.01.25.02.34l-1.99.17Z"/>
    <rect x="7.73" y="51.32" width="10.01" height="2" transform="translate(-33.24 24.28) rotate(-44.94)"/>
    <rect x="11.67" y="7.87" width="2" height="10.08" transform="translate(-5.42 12.74) rotate(-45)"/>
    <rect y="31.65" width="9.5" height="2"/>
    <path d="M37.63,34.08c-1.27-.31-2.5.33-3.29,1.71l-.13.23-.02,2.15c-1.35.02-2.91.02-4.24.02v-1.88s-.1-.2-.1-.2c-.73-1.58-1.97-2.35-3.33-2.07-1.42.3-2.59,1.75-2.61,3.22-.02,1.37.91,2.41,2.48,2.79.15.04.73.06,1.57.09l.1,14.06,2-.02-.1-14.01c1.33.01,2.85,0,4.21,0,0,0-.13,14-.13,14l1.99.15c.01-.1.02-.2,0-.29l.13-13.9c.98-.03,1.69-.08,1.87-.14,1.37-.47,2.15-1.52,2.09-2.81-.06-1.41-1.17-2.77-2.51-3.1ZM26.86,38.12c-.96-.23-.96-.68-.95-.82,0-.55.52-1.19,1.03-1.29.04,0,.08-.01.12-.01.38,0,.68.38.88.78v1.4c-.54-.01-.93-.03-1.08-.05ZM37.45,38.07c-.19.02-.64.05-1.26.06v-1.56c.32-.45.64-.63.97-.55.49.12.96.71.98,1.24,0,.15.02.54-.69.8Z"/>
  </g>
  <g>
    <path class="st1" d="M83.8,29.54v1.58c0,.79-.15,1.54-.45,2.25s-.71,1.34-1.24,1.89-1.15.99-1.85,1.31c-.71.32-1.47.49-2.29.49-.7,0-1.4-.1-2.12-.29s-1.37-.53-1.94-1.01c-.58-.48-1.05-1.1-1.42-1.85s-.56-1.72-.56-2.9v-14.11c0-.84.14-1.62.43-2.34s.7-1.34,1.22-1.87c.53-.53,1.16-.94,1.89-1.24s1.54-.45,2.43-.45c1.73,0,3.13.56,4.21,1.69.53.55.94,1.21,1.24,1.96.3.76.45,1.58.45,2.47v1.44h-3.67v-1.22c0-.72-.2-1.34-.61-1.87s-.96-.79-1.66-.79c-.91,0-1.52.28-1.82.85-.3.56-.45,1.28-.45,2.14v13.1c0,.74.16,1.37.49,1.87.32.5.91.76,1.75.76.24,0,.5-.04.77-.13.28-.08.53-.22.77-.41.22-.19.4-.46.54-.79.14-.34.22-.76.22-1.26v-1.26h3.67Z"/>
    <path class="st1" d="M86.21,17.27c0-1.03.18-1.94.54-2.74.36-.79.84-1.45,1.44-1.98.58-.5,1.23-.89,1.96-1.15.73-.26,1.47-.4,2.21-.4s1.48.13,2.21.4c.73.26,1.4.65,2,1.15.58.53,1.04,1.19,1.4,1.98s.54,1.7.54,2.74v13.54c0,1.08-.18,2-.54,2.77s-.83,1.4-1.4,1.91c-.6.53-1.27.92-2,1.19-.73.26-1.47.4-2.21.4s-1.48-.13-2.21-.4c-.73-.26-1.39-.66-1.96-1.19-.6-.5-1.08-1.14-1.44-1.91s-.54-1.69-.54-2.77v-13.54ZM89.88,30.8c0,.89.25,1.54.74,1.96.49.42,1.07.63,1.75.63s1.25-.21,1.75-.63c.49-.42.74-1.07.74-1.96v-13.54c0-.89-.25-1.54-.74-1.96s-1.07-.63-1.75-.63-1.25.21-1.75.63c-.49.42-.74,1.07-.74,1.96v13.54Z"/>
    <path class="st1" d="M101.26,36.85V11.22h3.53l5.54,15.44h.07v-15.44h3.67v25.63h-3.46l-5.62-15.41h-.07v15.41h-3.67s.01,0,.01,0Z"/>
    <path class="st1" d="M116.88,36.85V11.22h3.53l5.54,15.44h.07v-15.44h3.67v25.63h-3.46l-5.62-15.41h-.07v15.41h-3.67s.01,0,.01,0Z"/>
    <path class="st1" d="M132.65,36.85V11.22h10.94v3.46h-7.27v7.52h6.34v3.46h-6.34v7.52h7.27v3.67h-10.94Z"/>
    <path class="st1" d="M157.27,29.54v1.58c0,.79-.15,1.54-.45,2.25s-.71,1.34-1.24,1.89-1.15.99-1.85,1.31c-.71.32-1.47.49-2.29.49-.7,0-1.4-.1-2.12-.29s-1.37-.53-1.94-1.01c-.58-.48-1.05-1.1-1.42-1.85s-.56-1.72-.56-2.9v-14.11c0-.84.14-1.62.43-2.34s.7-1.34,1.22-1.87c.53-.53,1.16-.94,1.89-1.24s1.54-.45,2.43-.45c1.73,0,3.13.56,4.21,1.69.53.55.94,1.21,1.24,1.96.3.76.45,1.58.45,2.47v1.44h-3.67v-1.22c0-.72-.2-1.34-.61-1.87s-.96-.79-1.66-.79c-.91,0-1.52.28-1.82.85-.3.56-.45,1.28-.45,2.14v13.1c0,.74.16,1.37.49,1.87.32.5.91.76,1.75.76.24,0,.5-.04.77-.13.28-.08.53-.22.77-.41.22-.19.4-.46.54-.79.14-.34.22-.76.22-1.26v-1.26h3.67Z"/>
    <path class="st1" d="M162.31,36.85V14.67h-4.25v-3.46h12.17v3.46h-4.25v22.18h-3.67Z"/>
    <path class="st1" d="M171.49,36.85V11.22h10.94v3.46h-7.27v7.52h6.34v3.46h-6.34v7.52h7.27v3.67h-10.94Z"/>
    <path class="st1" d="M184.45,36.85V11.22h5.44c2.11,0,3.71.58,4.81,1.73,1.09,1.15,1.64,2.78,1.64,4.9v11.99c0,2.4-.58,4.17-1.75,5.31-1.16,1.14-2.84,1.71-5.02,1.71h-5.12ZM188.12,14.68v18.72h1.69c1.03,0,1.76-.26,2.2-.77.43-.52.65-1.33.65-2.43v-12.35c0-1.01-.2-1.79-.61-2.34s-1.15-.83-2.23-.83c0,0-1.7,0-1.7,0Z"/>
  </g>
  <path class="st1" d="M84.01,48.8h-3.67v-.83c0-.84-.2-1.57-.59-2.18-.4-.61-1.06-.92-2-.92-.5,0-.91.1-1.22.29s-.56.43-.76.72c-.19.31-.32.67-.4,1.06-.07.4-.11.81-.11,1.24,0,.5.02.92.05,1.26.04.34.13.64.27.9.14.26.35.49.63.68s.65.38,1.13.58l2.81,1.12c.82.31,1.48.68,1.98,1.1s.9.91,1.19,1.46c.26.58.44,1.23.54,1.96s.14,1.57.14,2.5c0,1.08-.11,2.08-.32,3.01-.22.92-.56,1.71-1.04,2.36-.5.67-1.16,1.2-1.98,1.58s-1.81.58-2.99.58c-.89,0-1.72-.16-2.48-.47-.77-.31-1.43-.74-1.98-1.3-.55-.55-.99-1.19-1.31-1.93-.32-.73-.49-1.53-.49-2.39v-1.37h3.67v1.15c0,.67.2,1.28.59,1.82s1.06.81,2,.81c.62,0,1.11-.09,1.46-.27s.62-.44.81-.77c.19-.34.31-.74.34-1.21.04-.47.05-.99.05-1.57,0-.67-.02-1.22-.07-1.66-.05-.43-.14-.78-.29-1.04-.17-.26-.39-.48-.67-.65-.28-.17-.64-.35-1.1-.54l-2.63-1.08c-1.58-.65-2.65-1.51-3.19-2.57-.54-1.07-.81-2.41-.81-4.01,0-.96.13-1.87.4-2.74.26-.86.66-1.61,1.19-2.23.5-.62,1.15-1.12,1.93-1.49s1.71-.56,2.79-.56c.91,0,1.75.17,2.5.5.76.34,1.41.78,1.96,1.33,1.1,1.15,1.66,2.47,1.66,3.96v1.8h.01Z"/>
  <path class="st1" d="M88.8,67.05v-22.18h-4.25v-3.46h12.17v3.46h-4.25v22.18h-3.67Z"/>
  <path class="st1" d="M94.34,67.05l5.72-25.63h3.06l5.72,25.63h-3.67l-1.08-5.51h-5l-1.08,5.51h-3.67ZM103.42,58.09l-1.8-9.29h-.07l-1.8,9.29h3.67Z"/>
  <path class="st1" d="M110.29,67.05v-25.63h5.9c4.32,0,6.48,2.51,6.48,7.52,0,1.51-.23,2.8-.7,3.85-.47,1.06-1.29,1.91-2.47,2.56l3.96,11.7h-3.89l-3.42-10.94h-2.2v10.94h-3.67,0ZM113.96,44.88v7.99h2.09c.65,0,1.16-.09,1.55-.27.38-.18.68-.44.9-.77.19-.34.32-.75.4-1.24.07-.49.11-1.06.11-1.71s-.04-1.22-.11-1.71-.22-.92-.43-1.28c-.46-.67-1.32-1.01-2.59-1.01,0,0-1.92,0-1.92,0Z"/>
  <path class="st1" d="M127.03,67.05v-22.18h-4.25v-3.46h12.17v3.46h-4.25v22.18h-3.67Z"/>
  <path class="st1" d="M136.21,67.05v-25.63h10.94v3.46h-7.27v7.52h6.34v3.46h-6.34v7.52h7.27v3.67h-10.94Z"/>
  <path class="st1" d="M149.17,67.05v-25.63h5.9c4.32,0,6.48,2.51,6.48,7.52,0,1.51-.23,2.8-.7,3.85-.47,1.06-1.29,1.91-2.47,2.56l3.96,11.7h-3.89l-3.42-10.94h-2.2v10.94h-3.67,0ZM152.84,44.88v7.99h2.09c.65,0,1.16-.09,1.55-.27.38-.18.68-.44.9-.77.19-.34.32-.75.4-1.24.07-.49.11-1.06.11-1.71s-.04-1.22-.11-1.71-.22-.92-.43-1.28c-.46-.67-1.32-1.01-2.59-1.01,0,0-1.92,0-1.92,0Z"/>
  <path class="st1" d="M176.03,48.8h-3.67v-.83c0-.84-.2-1.57-.59-2.18-.4-.61-1.06-.92-2-.92-.5,0-.91.1-1.22.29s-.56.43-.76.72c-.19.31-.32.67-.4,1.06-.07.4-.11.81-.11,1.24,0,.5.02.92.05,1.26.04.34.13.64.27.9.14.26.35.49.63.68s.65.38,1.13.58l2.81,1.12c.82.31,1.48.68,1.98,1.1s.9.91,1.19,1.46c.26.58.44,1.23.54,1.96.1.73.14,1.57.14,2.5,0,1.08-.11,2.08-.32,3.01-.22.92-.56,1.71-1.04,2.36-.5.67-1.16,1.2-1.98,1.58s-1.81.58-2.99.58c-.89,0-1.72-.16-2.48-.47-.77-.31-1.43-.74-1.98-1.3-.55-.55-.99-1.19-1.31-1.93-.32-.73-.49-1.53-.49-2.39v-1.37h3.67v1.15c0,.67.2,1.28.59,1.82s1.06.81,2,.81c.62,0,1.11-.09,1.46-.27s.62-.44.81-.77c.19-.34.31-.74.34-1.21.04-.47.05-.99.05-1.57,0-.67-.02-1.22-.07-1.66-.05-.43-.14-.78-.29-1.04-.17-.26-.39-.48-.67-.65-.28-.17-.64-.35-1.1-.54l-2.63-1.08c-1.58-.65-2.65-1.51-3.19-2.57-.54-1.07-.81-2.41-.81-4.01,0-.96.13-1.87.4-2.74.26-.86.66-1.61,1.19-2.23.5-.62,1.15-1.12,1.93-1.49s1.71-.56,2.79-.56c.91,0,1.75.17,2.5.5.76.34,1.41.78,1.96,1.33,1.1,1.15,1.66,2.47,1.66,3.96v1.8h0Z"/>
</svg>