<?xml version="1.0" encoding="UTF-8"?>
<svg id="Lag_1" xmlns="http://www.w3.org/2000/svg" version="1.1" viewBox="0 0 192.34 72.27">
  <!-- Generator: Adobe Illustrator 30.0.0, SVG Export Plug-In . SVG Version: 2.1.1 Build 123)  -->
  <defs>
    <style>
      .st0 {
        fill: #ffe44a;
      }

      .st0, .st1 {
        stroke: #000;
        stroke-miterlimit: 10;
        stroke-width: 2px;
      }

      .st2 {
        fill: #1d1d1b;
      }

      .st1 {
        fill: none;
      }
    </style>
  </defs>
  <g id="Generativt_objekt">
    <g>
      <line class="st1" x1="55.06" y1="32.65" x2="64.2" y2="32.65"/>
      <line class="st1" x1="48.21" y1="48.82" x2="54.82" y2="55.43"/>
      <line class="st1" x1="55.25" y1="9.44" x2="48.3" y2="16.39"/>
      <line class="st1" x1="32.28" x2="32.28" y2="9.87"/>
      <line class="st1" x1="27.16" y1="64.2" x2="37.15" y2="64.2"/>
      <line class="st1" x1="25.22" y1="60.79" x2="39.1" y2="60.79"/>
      <line class="st1" x1="23.51" y1="57.26" x2="40.57" y2="57.26"/>
      <path class="st0" d="M32.64,17.82c-7.88.36-14.04,6.49-13.93,14.46"/>
      <path class="st0" d="M40.47,53.36c-.01-.16-.01-.32-.03-.49-.57-6.31,2.79-7.92,5.9-12.3,8.17-11.53-1.44-27.22-15.28-26.24-12.88.91-20.57,15.81-12.82,26.49,3.88,5.34,5.42,4.9,5.88,12.18,0,.12.01.24.02.36"/>
      <line class="st1" x1="16.27" y1="48.79" x2="9.19" y2="55.86"/>
      <line class="st1" x1="9.1" y1="9.35" x2="16.23" y2="16.48"/>
      <line class="st1" y1="32.65" x2="9.5" y2="32.65"/>
      <path class="st0" d="M35.04,54.2s.01-.08,0-.12l.17-17.79c2.09-3.65,6.06,1.54,2.51,2.75-.52.18-10.47.2-11.09.05-4.19-1.01.35-6.82,2.31-2.56l.13,17.67"/>
    </g>
  </g>
  <g>
    <path class="st2" d="M79.8,21.54v1.58c0,.79-.15,1.54-.45,2.25s-.71,1.34-1.24,1.89c-.53.55-1.15.99-1.85,1.31-.71.32-1.47.49-2.29.49-.7,0-1.4-.1-2.12-.29s-1.37-.53-1.94-1.01c-.58-.48-1.05-1.1-1.42-1.85s-.56-1.72-.56-2.9v-14.11c0-.84.14-1.62.43-2.34s.7-1.34,1.22-1.87c.53-.53,1.16-.94,1.89-1.24s1.54-.45,2.43-.45c1.73,0,3.13.56,4.21,1.69.53.55.94,1.21,1.24,1.96.3.76.45,1.58.45,2.47v1.44h-3.67v-1.22c0-.72-.2-1.34-.61-1.87s-.96-.79-1.66-.79c-.91,0-1.52.28-1.82.85-.3.56-.45,1.28-.45,2.14v13.1c0,.74.16,1.37.49,1.87.32.5.91.76,1.75.76.24,0,.5-.04.77-.13.28-.08.53-.22.77-.41.22-.19.4-.46.54-.79.14-.34.22-.76.22-1.26v-1.26h3.67Z"/>
    <path class="st2" d="M82.21,9.27c0-1.03.18-1.94.54-2.74.36-.79.84-1.45,1.44-1.98.58-.5,1.23-.89,1.96-1.15.73-.26,1.47-.4,2.21-.4s1.48.13,2.21.4c.73.26,1.4.65,2,1.15.58.53,1.04,1.19,1.4,1.98s.54,1.7.54,2.74v13.54c0,1.08-.18,2-.54,2.77s-.83,1.4-1.4,1.91c-.6.53-1.27.92-2,1.19-.73.26-1.47.4-2.21.4s-1.48-.13-2.21-.4c-.73-.26-1.39-.66-1.96-1.19-.6-.5-1.08-1.14-1.44-1.91s-.54-1.69-.54-2.77v-13.54ZM85.88,22.8c0,.89.25,1.54.74,1.96.49.42,1.07.63,1.75.63s1.25-.21,1.75-.63c.49-.42.74-1.07.74-1.96v-13.54c0-.89-.25-1.54-.74-1.96-.49-.42-1.07-.63-1.75-.63s-1.25.21-1.75.63c-.49.42-.74,1.07-.74,1.96v13.54Z"/>
    <path class="st2" d="M97.26,28.85V3.22h3.53l5.54,15.44h.07V3.22h3.67v25.63h-3.46l-5.62-15.41h-.07v15.41h-3.67.01Z"/>
    <path class="st2" d="M112.88,28.85V3.22h3.53l5.54,15.44h.07V3.22h3.67v25.63h-3.46l-5.62-15.41h-.07v15.41h-3.67.01Z"/>
    <path class="st2" d="M128.65,28.85V3.22h10.94v3.46h-7.27v7.52h6.34v3.46h-6.34v7.52h7.27v3.67h-10.94Z"/>
    <path class="st2" d="M153.27,21.54v1.58c0,.79-.15,1.54-.45,2.25s-.71,1.34-1.24,1.89c-.53.55-1.15.99-1.85,1.31-.71.32-1.47.49-2.29.49-.7,0-1.4-.1-2.12-.29s-1.37-.53-1.94-1.01c-.58-.48-1.05-1.1-1.42-1.85s-.56-1.72-.56-2.9v-14.11c0-.84.14-1.62.43-2.34s.7-1.34,1.22-1.87c.53-.53,1.16-.94,1.89-1.24s1.54-.45,2.43-.45c1.73,0,3.13.56,4.21,1.69.53.55.94,1.21,1.24,1.96.3.76.45,1.58.45,2.47v1.44h-3.67v-1.22c0-.72-.2-1.34-.61-1.87s-.96-.79-1.66-.79c-.91,0-1.52.28-1.82.85-.3.56-.45,1.28-.45,2.14v13.1c0,.74.16,1.37.49,1.87.32.5.91.76,1.75.76.24,0,.5-.04.77-.13.28-.08.53-.22.77-.41.22-.19.4-.46.54-.79.14-.34.22-.76.22-1.26v-1.26h3.67Z"/>
    <path class="st2" d="M158.31,28.85V6.67h-4.25v-3.46h12.17v3.46h-4.25v22.18h-3.67Z"/>
    <path class="st2" d="M167.49,28.85V3.22h10.94v3.46h-7.27v7.52h6.34v3.46h-6.34v7.52h7.27v3.67h-10.94Z"/>
    <path class="st2" d="M180.45,28.85V3.22h5.44c2.11,0,3.71.58,4.81,1.73,1.09,1.15,1.64,2.78,1.64,4.9v11.99c0,2.4-.58,4.17-1.75,5.31-1.16,1.14-2.84,1.71-5.02,1.71h-5.12ZM184.12,6.68v18.72h1.69c1.03,0,1.76-.26,2.2-.77.43-.52.65-1.33.65-2.43v-12.35c0-1.01-.2-1.79-.61-2.34-.41-.55-1.15-.83-2.23-.83h-1.7Z"/>
    <path class="st2" d="M80.01,53.8h-3.67v-.83c0-.84-.2-1.57-.59-2.18-.4-.61-1.06-.92-2-.92-.5,0-.91.1-1.22.29s-.56.43-.76.72c-.19.31-.32.67-.4,1.06-.07.4-.11.81-.11,1.24,0,.5.02.92.05,1.26.04.34.13.64.27.9.14.26.35.49.63.68s.65.38,1.13.58l2.81,1.12c.82.31,1.48.68,1.98,1.1s.9.91,1.19,1.46c.26.58.44,1.23.54,1.96.1.73.14,1.57.14,2.5,0,1.08-.11,2.08-.32,3.01-.22.92-.56,1.71-1.04,2.36-.5.67-1.16,1.2-1.98,1.58s-1.81.58-2.99.58c-.89,0-1.72-.16-2.48-.47-.77-.31-1.43-.74-1.98-1.3-.55-.55-.99-1.19-1.31-1.93-.32-.73-.49-1.53-.49-2.39v-1.37h3.67v1.15c0,.67.2,1.28.59,1.82s1.06.81,2,.81c.62,0,1.11-.09,1.46-.27s.62-.44.81-.77c.19-.34.31-.74.34-1.21.04-.47.05-.99.05-1.57,0-.67-.02-1.22-.07-1.66-.05-.43-.14-.78-.29-1.04-.17-.26-.39-.48-.67-.65-.28-.17-.64-.35-1.1-.54l-2.63-1.08c-1.58-.65-2.65-1.51-3.19-2.57-.54-1.07-.81-2.41-.81-4.01,0-.96.13-1.87.4-2.74.26-.86.66-1.61,1.19-2.23.5-.62,1.15-1.12,1.93-1.49s1.71-.56,2.79-.56c.91,0,1.75.17,2.5.5.76.34,1.41.78,1.96,1.33,1.1,1.15,1.66,2.47,1.66,3.96v1.8h0Z"/>
    <path class="st2" d="M84.8,72.05v-22.18h-4.25v-3.46h12.17v3.46h-4.25v22.18h-3.67Z"/>
    <path class="st2" d="M90.34,72.05l5.72-25.63h3.06l5.72,25.63h-3.67l-1.08-5.51h-5l-1.08,5.51h-3.67ZM99.42,63.09l-1.8-9.29h-.07l-1.8,9.29h3.67Z"/>
    <path class="st2" d="M106.29,72.05v-25.63h5.9c4.32,0,6.48,2.51,6.48,7.52,0,1.51-.23,2.8-.7,3.85-.47,1.06-1.29,1.91-2.47,2.56l3.96,11.7h-3.89l-3.42-10.94h-2.2v10.94h-3.67,0ZM109.96,49.88v7.99h2.09c.65,0,1.16-.09,1.55-.27.38-.18.68-.44.9-.77.19-.34.32-.75.4-1.24.07-.49.11-1.06.11-1.71s-.04-1.22-.11-1.71-.22-.92-.43-1.28c-.46-.67-1.32-1.01-2.59-1.01h-1.92Z"/>
    <path class="st2" d="M123.03,72.05v-22.18h-4.25v-3.46h12.17v3.46h-4.25v22.18h-3.67Z"/>
    <path class="st2" d="M132.21,72.05v-25.63h10.94v3.46h-7.27v7.52h6.34v3.46h-6.34v7.52h7.27v3.67h-10.94Z"/>
    <path class="st2" d="M145.17,72.05v-25.63h5.9c4.32,0,6.48,2.51,6.48,7.52,0,1.51-.23,2.8-.7,3.85-.47,1.06-1.29,1.91-2.47,2.56l3.96,11.7h-3.89l-3.42-10.94h-2.2v10.94h-3.67,0ZM148.84,49.88v7.99h2.09c.65,0,1.16-.09,1.55-.27.38-.18.68-.44.9-.77.19-.34.32-.75.4-1.24.07-.49.11-1.06.11-1.71s-.04-1.22-.11-1.71-.22-.92-.43-1.28c-.46-.67-1.32-1.01-2.59-1.01h-1.92Z"/>
    <path class="st2" d="M172.03,53.8h-3.67v-.83c0-.84-.2-1.57-.59-2.18-.4-.61-1.06-.92-2-.92-.5,0-.91.1-1.22.29s-.56.43-.76.72c-.19.31-.32.67-.4,1.06-.07.4-.11.81-.11,1.24,0,.5.02.92.05,1.26.04.34.13.64.27.9.14.26.35.49.63.68s.65.38,1.13.58l2.81,1.12c.82.31,1.48.68,1.98,1.1s.9.91,1.19,1.46c.26.58.44,1.23.54,1.96.1.73.14,1.57.14,2.5,0,1.08-.11,2.08-.32,3.01-.22.92-.56,1.71-1.04,2.36-.5.67-1.16,1.2-1.98,1.58s-1.81.58-2.99.58c-.89,0-1.72-.16-2.48-.47-.77-.31-1.43-.74-1.98-1.3-.55-.55-.99-1.19-1.31-1.93-.32-.73-.49-1.53-.49-2.39v-1.37h3.67v1.15c0,.67.2,1.28.59,1.82s1.06.81,2,.81c.62,0,1.11-.09,1.46-.27s.62-.44.81-.77c.19-.34.31-.74.34-1.21.04-.47.05-.99.05-1.57,0-.67-.02-1.22-.07-1.66-.05-.43-.14-.78-.29-1.04-.17-.26-.39-.48-.67-.65-.28-.17-.64-.35-1.1-.54l-2.63-1.08c-1.58-.65-2.65-1.51-3.19-2.57-.54-1.07-.81-2.41-.81-4.01,0-.96.13-1.87.4-2.74.26-.86.66-1.61,1.19-2.23.5-.62,1.15-1.12,1.93-1.49s1.71-.56,2.79-.56c.91,0,1.75.17,2.5.5.76.34,1.41.78,1.96,1.33,1.1,1.15,1.66,2.47,1.66,3.96v1.8h0Z"/>
  </g>
</svg>