<?xml version="1.0" encoding="UTF-8"?>
<svg id="Lag_1" data-name="Lag 1" xmlns="http://www.w3.org/2000/svg" viewBox="0 0 595.28 588.44">
  <defs>
    <style>
      .cls-1 {
        fill: none;
        stroke: #1d1d1b;
        stroke-linecap: round;
        stroke-miterlimit: 10;
        stroke-width: 2px;
      }

      .cls-2 {
        fill: #1d1d1b;
      }

      .cls-3 {
        fill: #ffe64a;
      }
    </style>
  </defs>
  <path class="cls-3" d="M90.22,152.58h-30.22v6.5s26.99,2.23,26.99,2.23l25.49,18.97c2.14,2.51,1.67,7.56,2.46,10.77-12.08-1.66-24.25-3.54-36.38-4.41-.59,2.01-2.31,3.67-2.08,5.91,10.77,1.49,21.51,3.79,32.16,6.06l27.19,32.23-5.87,16.44-16.5,7.47c1.21,1.12,3.9,5.61,5.25,5.75,2.63.27,8.96-4.6,11.02-3.05l13.47,21,2.85,27.63,6.32,9.04-12.95,14.05-16.14.24-2.76,6.36c-.11.42.15.63.37.92.27.35,6.38,5.53,6.76,5.75,1.53.89,6.11-.06,7.54-1,1.34-.88,2.86-5.52,3.48-5.52h11.49c.18,0,.84.73.65,1.13l-1.12,9.89c-.89,1.28-11.85,1.45-13.76,2.72l23.22,18.24c1.59,4.59,1.97,9.65,2.79,14.44l12.45,2.04c.2,1.13-.05.8-.64,1.12-1.66.91-11.45,3.42-11.78,3.95.25,2.52-.77,14.51.42,15.68.46.45,11.54,4.17,12.18,4.1l17.61-9.36c1.92-.49,2.29,4.34,4.04,4.93,2.56-.76,10.82.32,12.07-1.76.79-1.31.42-4,1.82-5.17h11.24c.19,0-.41,3.08.29,3.55l44.99,10.4,2.87-.53,16.62-13.35c1.92.98,14.37,9.38,14.63,10.23.46,1.53-8.87,11.85-7.96,12.67l21.98,3.74c.76.44,3.51,10.13,2.99,10.75l-12.48-1.49c-.02,1.35-.3,7.78-.98,8.26l-14.01,1.48,37.96,30.74c.04.54.26.7-.31.99-2.55,1.28-7.75,2.26-10.67,3-.19.83.27,1.01.75,1.49,5.38,5.23,16.24,9.62,22.2,14.77l16.51.47,14.44,17.03c.35.41.78.6,1.3.7,1.57.3,17.32.17,18.21-.24l24.92-25.58-16.43-32.37c-.11-1.04.06-.65.75-.75,2.16-.31,13.04,1.21,13.75.5l.44-19.43-10.61-1.59c-1.4,2.58-2.27,2.65-5.09,2.56l-26.15-2.08c-.14-2.5-3.28-5.79-3.05-8.16.08-.8,6.15-8.81,6.85-9.16,1.04-.52,15.03-3.63,15.62-3.1l-2,12.49h7.99l-1.78-17.48,36.5-28.97,50.47-15.97,4.08-33.19-21.47-26.15-40.1-11.11-11.51-19.51,6.04-36.97,31.95-25,1.27-1.73-16.22-6.76c-10.58,1.79-21.1,4.37-31.74,5.51l-3.53-32.15,17.69-9.4c.76-.38,1.15-.82,1.32-1.68.24-1.25.22-10.87-.08-11.88-.53-1.77-4.54-1.88-5.17-2.82-.83-1.23.32-5.29-.33-6.41-.28-.47-8.67-5.94-9.21-5.99-1.67-.16-4.62,3.29-6.64,2.14-5.58-4.19-10.72-9.01-16.28-13.22-.49-.37-2.87-2.4-3.22-2.02,1.94,9.56,5.65,18.71,7.54,28.23.06.62-.16,1.17-.29,1.75-1.05,4.66-9.24,19.07-9.24,22.22v7.24c-.97.23-.96-.35-1.41-.84-1.23-1.35-5.39-6.55-6.56-6.93-2.21-.72-14.42-1.98-16.8-1.75-.71.07-1.4,0-2,.49l-13.69,9.53,11.99-35.21c0-.53-9.5-2.41-10.24-2.28-2.17.38-2.59,6.19-4.58,7.46l-17.61-2.89-3.41,20.82c-.35.76-12.06,10.44-12.88,10.6-.63.12-4.55.49-4.23-.72l6.37-16.92-5.93-11.79c-.73-.53-10.87,3.07-12.74,3.41-4.79.87-12.43,1.29-17.44,1.54-2.07.11-4.17-.06-6.24,0l-.47-6.47,31.96-5.29-9.51-25.21c-.79-.58-13.18,10.17-14.84,11.41l-17.62-1.92,12.58-19.38c1.64-.97,14.72,3.18,17.75,3.3,1.86.07,1.06-6.45,1.14-8.14.09-2.08,1.19-5.13.24-7.24-1.84-2.52-18.72-16.94-18.72-18.24v-16.24h9.99l1.5,6h10.49c-.46-4.8-1.51-9.73-1.27-14.52l12.19-14.3c-2.21-2.9-5.69-5.25-8.18-8.15l-10.02,12.93-22.44,6c-6.51-1.73-13.49-6.32-20.02-7.39-14.31-2.36-30.31-1.96-44.79-4.16l-30.83-16.87c-.33.38.39,9.73.8,10.04l22.52,12.33,24.75,2.22,18.89,12.59c1,1.68.32,6.29.45,8.55.2,3.66,1.43,11.24,1,14.43-.13.97-5.74,11.84-6.56,12.95-.47.65-.73,1.27-1.7,1.3l-30.13,4.09c-.06,2.88-.17,5.81-.09,8.69.2,7.27,1.35,14.69,1.56,21.96.02.74.11,1.58-.29,2.25l-29.7,20.77c-.9.44-1.53.15-2.37-.17-3.05-1.16-7.27-5.02-10.39-6.61l-1.22,6.78c-.54.39-6.26-.67-7.01-1.05-1.9-.98-4.29-9.36-6.25-9.73-1.33-.25-10.73-.16-11.73.26-2.03.85-7.39,9.88-9.25,10.24l-16.38-.61c-1.61-.26-5.11-3.63-6.1-3.89ZM305.19,123.02c-.73.46-4.3-.17-5.65.09-2.58.49-5.58,6.55-4.29,8.76.45.77,7.97,8.21,9,8.99,1.28.97,1.3,1.12,2.46-.09,1.53-1.59,8.43-11.47,9.48-13.49.32-.63.67-1.15.59-1.91-.07-.64-7.16-10.01-7.76-10.25-.98-.18-.61.16-.85.63-.56,1.11-2.5,6.99-2.97,7.28ZM522.56,515.53v-18.49l-22.01-15.96-48.58-5.87-13.16-11.34c-1.19.72-7.86,4.82-7.67,5.68.24,1.09,15.58,11.97,17.24,14.26l-2.76,15.47h24.48c-.11.75-.94.93-1.49,1.26-5.35,3.2-11.81,5.53-17.31,8.58l-31.55-7.26c-.61-.2-.91.11-1.37.37-2.32,1.35-6.32,9.09-8.85,11.16-.59,5.04.21,8.56-3.29,12.73l2.94,22.09c7.71-.61,15.57-1.37,23.14-2.54l39.14-39.32,49.88,9.89c.44.07,1.11-.4,1.21-.73ZM395.68,526.27l-20.98-3.5v8.99l20.98,11.49v-16.99Z"/>
  <g>
    <line class="cls-1" x1="392.34" y1="269.06" x2="469.63" y2="269.06"/>
    <path class="cls-2" d="M392.71,276.58c-4.15,0-7.52-3.37-7.52-7.52s3.37-7.52,7.52-7.52,7.52,3.37,7.52,7.52-3.37,7.52-7.52,7.52Z"/>
  </g>
  <g>
    <path class="cls-2" d="M10.46,365.7l2.14-.19c.1.86.34,1.56.71,2.12s.95,1,1.73,1.34,1.66.51,2.64.51c.87,0,1.63-.13,2.3-.39s1.16-.61,1.48-1.06.49-.94.49-1.47-.16-1.01-.47-1.41-.83-.74-1.55-1.01c-.46-.18-1.48-.46-3.06-.84s-2.68-.74-3.32-1.07c-.82-.43-1.43-.96-1.83-1.6s-.6-1.35-.6-2.14c0-.87.25-1.68.74-2.43s1.21-1.33,2.16-1.72,2-.59,3.15-.59c1.27,0,2.4.21,3.37.62s1.72,1.01,2.24,1.81.8,1.7.84,2.71l-2.18.16c-.12-1.09-.51-1.91-1.19-2.46s-1.67-.83-2.99-.83-2.38.25-3.01.76-.94,1.11-.94,1.82c0,.62.22,1.12.67,1.52.44.4,1.58.81,3.43,1.22s3.12.78,3.8,1.1c1,.46,1.74,1.04,2.21,1.75s.71,1.52.71,2.44-.26,1.78-.79,2.58-1.28,1.44-2.26,1.89-2.08.67-3.31.67c-1.55,0-2.86-.23-3.91-.68s-1.88-1.13-2.47-2.04-.91-1.94-.94-3.09Z"/>
    <path class="cls-2" d="M27.14,371.22v-17.18h2.27v15.15h8.46v2.03h-10.73Z"/>
    <path class="cls-2" d="M38.7,371.22l6.6-17.18h2.45l7.03,17.18h-2.59l-2-5.2h-7.18l-1.89,5.2h-2.41ZM43.65,364.17h5.82l-1.79-4.76c-.55-1.45-.95-2.63-1.22-3.56-.22,1.1-.53,2.2-.93,3.28l-1.89,5.04Z"/>
    <path class="cls-2" d="M64.63,364.48v-2.02h7.28s0,6.36,0,6.36c-1.12.89-2.27,1.56-3.46,2.01s-2.41.67-3.66.67c-1.69,0-3.22-.36-4.6-1.08s-2.42-1.77-3.12-3.13-1.05-2.89-1.05-4.58.35-3.23,1.05-4.68,1.71-2.53,3.02-3.23,2.82-1.05,4.54-1.05c1.24,0,2.37.2,3.37.6s1.79.96,2.36,1.68,1,1.66,1.3,2.81l-2.05.56c-.26-.88-.58-1.56-.96-2.06s-.93-.9-1.64-1.2-1.5-.45-2.37-.45c-1.04,0-1.94.16-2.7.47s-1.37.73-1.83,1.25-.83,1.08-1.08,1.7c-.44,1.06-.66,2.21-.66,3.46,0,1.53.26,2.81.79,3.84s1.29,1.8,2.3,2.3,2.08.75,3.21.75c.98,0,1.95-.19,2.88-.57s1.65-.78,2.13-1.21v-3.2h-5.05Z"/>
    <path class="cls-2" d="M75.31,371.22v-17.18h12.42v2.03h-10.15v5.26h9.5v2.02h-9.5v5.85h10.55v2.03h-12.82Z"/>
    <path class="cls-2" d="M91.17,371.22v-17.18h2.27v15.15h8.46v2.03h-10.73Z"/>
    <path class="cls-2" d="M103.84,365.7l2.14-.19c.1.86.34,1.56.71,2.12s.95,1,1.73,1.34,1.66.51,2.64.51c.87,0,1.63-.13,2.3-.39s1.16-.61,1.48-1.06.49-.94.49-1.47-.16-1.01-.47-1.41-.83-.74-1.55-1.01c-.46-.18-1.48-.46-3.06-.84s-2.68-.74-3.32-1.07c-.82-.43-1.43-.96-1.83-1.6s-.6-1.35-.6-2.14c0-.87.25-1.68.74-2.43s1.21-1.33,2.16-1.72,2-.59,3.15-.59c1.27,0,2.4.21,3.37.62s1.72,1.01,2.24,1.81.8,1.7.84,2.71l-2.18.16c-.12-1.09-.51-1.91-1.19-2.46s-1.67-.83-2.99-.83-2.38.25-3.01.76-.94,1.11-.94,1.82c0,.62.22,1.12.67,1.52.44.4,1.58.81,3.43,1.22s3.12.78,3.8,1.1c1,.46,1.74,1.04,2.21,1.75s.71,1.52.71,2.44-.26,1.78-.79,2.58-1.28,1.44-2.26,1.89-2.08.67-3.31.67c-1.55,0-2.86-.23-3.91-.68s-1.88-1.13-2.47-2.04-.91-1.94-.94-3.09Z"/>
    <path class="cls-2" d="M120.67,371.22v-17.18h12.42v2.03h-10.15v5.26h9.5v2.02h-9.5v5.85h10.55v2.03h-12.82Z"/>
  </g>
  <g>
    <path class="cls-2" d="M199.34,474.91v-17.18h2.33l9.02,13.49v-13.49h2.18v17.18h-2.33l-9.02-13.5v13.5h-2.18Z"/>
    <path class="cls-2" d="M214.85,474.91l8.26-17.18h14.1v2.03h-8.64v5.29h8.03v2.02h-8.03v5.82h8.95v2.03h-11.24v-4.96h-6.63l-2.34,4.96h-2.46ZM220.62,467.94h5.67v-8.18h-1.7l-3.97,8.18Z"/>
    <path class="cls-2" d="M239.92,469.39l2.14-.19c.1.86.34,1.56.71,2.12s.95,1,1.73,1.34,1.66.51,2.64.51c.87,0,1.63-.13,2.3-.39s1.16-.61,1.48-1.06.49-.94.49-1.47-.16-1.01-.47-1.41-.83-.74-1.55-1.01c-.46-.18-1.48-.46-3.06-.84s-2.68-.74-3.32-1.07c-.82-.43-1.43-.96-1.83-1.6s-.6-1.35-.6-2.14c0-.87.25-1.68.74-2.43s1.21-1.33,2.16-1.72,2-.59,3.15-.59c1.27,0,2.4.21,3.37.62s1.72,1.01,2.24,1.81.8,1.7.84,2.71l-2.18.16c-.12-1.09-.51-1.91-1.19-2.46s-1.67-.83-2.99-.83-2.38.25-3.01.76-.94,1.11-.94,1.82c0,.62.22,1.12.67,1.52.44.4,1.58.81,3.43,1.22s3.12.78,3.8,1.1c1,.46,1.74,1.04,2.21,1.75s.71,1.52.71,2.44-.26,1.78-.79,2.58-1.28,1.44-2.26,1.89-2.08.67-3.31.67c-1.55,0-2.86-.23-3.91-.68s-1.88-1.13-2.47-2.04-.91-1.94-.94-3.09Z"/>
    <path class="cls-2" d="M261.07,474.91v-15.15h-5.66v-2.03h13.62v2.03h-5.68v15.15h-2.27Z"/>
    <path class="cls-2" d="M276.27,474.91l-6.66-17.18h2.46l4.46,12.48c.36,1,.66,1.94.9,2.81.27-.94.57-1.88.93-2.81l4.64-12.48h2.32l-6.73,17.18h-2.33Z"/>
    <path class="cls-2" d="M287.42,474.91v-17.18h12.42v2.03h-10.15v5.26h9.5v2.02h-9.5v5.85h10.55v2.03h-12.82Z"/>
    <path class="cls-2" d="M303.38,474.91v-17.18h5.92c1.34,0,2.36.08,3.06.25.98.23,1.82.64,2.52,1.23.91.77,1.58,1.74,2.03,2.94s.67,2.55.67,4.08c0,1.3-.15,2.46-.46,3.47s-.7,1.84-1.17,2.5-1,1.18-1.56,1.56-1.25.67-2.05.86-1.72.29-2.76.29h-6.2ZM305.65,472.88h3.67c1.13,0,2.02-.11,2.67-.32s1.16-.51,1.54-.89c.54-.54.96-1.26,1.26-2.17s.45-2.01.45-3.31c0-1.8-.29-3.18-.88-4.14s-1.31-1.61-2.15-1.94c-.61-.23-1.59-.35-2.94-.35h-3.61v13.12Z"/>
  </g>
  <g>
    <path class="cls-2" d="M476.4,277.2v-17.18h2.27v8.52l8.53-8.52h3.08l-7.21,6.96,7.52,10.22h-3l-6.12-8.7-2.81,2.74v5.95h-2.27Z"/>
    <path class="cls-2" d="M505.3,261.59l1.97-2.2,1.16.98-2.06,2.32c.67,1,1.12,1.88,1.36,2.62.31.98.47,2.09.47,3.3,0,1.76-.36,3.32-1.07,4.7s-1.71,2.41-2.99,3.12-2.65,1.05-4.1,1.05c-1.08,0-2.05-.15-2.93-.46-.67-.23-1.46-.68-2.36-1.35l-1.97,2.2-1.16-.98,2.06-2.31c-.77-1.16-1.28-2.16-1.54-2.98s-.39-1.81-.39-2.97c0-1.77.35-3.34,1.05-4.72s1.69-2.42,2.96-3.13,2.68-1.07,4.24-1.07c1.05,0,1.96.14,2.75.42s1.63.76,2.54,1.45ZM503.89,263.18c-.73-.58-1.38-.97-1.93-1.18s-1.2-.32-1.94-.32c-1.71,0-3.12.58-4.24,1.74s-1.68,2.89-1.68,5.2c0,.91.09,1.71.26,2.41.12.52.39,1.17.79,1.93l8.74-9.79ZM504.85,264.38l-8.71,9.75c.6.49,1.16.84,1.66,1.03.66.26,1.38.39,2.16.39,1.7,0,3.11-.6,4.22-1.8s1.66-2.89,1.66-5.06c0-1.62-.33-3.06-1-4.3Z"/>
    <path class="cls-2" d="M519.21,270.46v-2.02h7.28s0,6.36,0,6.36c-1.12.89-2.27,1.56-3.46,2.01s-2.41.67-3.66.67c-1.69,0-3.22-.36-4.6-1.08s-2.42-1.77-3.12-3.13-1.05-2.89-1.05-4.58.35-3.23,1.05-4.68,1.71-2.53,3.02-3.23,2.82-1.05,4.54-1.05c1.24,0,2.37.2,3.37.6s1.79.96,2.36,1.68,1,1.66,1.3,2.81l-2.05.56c-.26-.88-.58-1.56-.96-2.06s-.93-.9-1.64-1.2-1.5-.45-2.37-.45c-1.04,0-1.94.16-2.7.47s-1.37.73-1.83,1.25-.83,1.08-1.08,1.7c-.44,1.06-.66,2.21-.66,3.46,0,1.53.26,2.81.79,3.84s1.29,1.8,2.3,2.3,2.08.75,3.21.75c.98,0,1.95-.19,2.88-.57s1.65-.78,2.13-1.21v-3.2h-5.05Z"/>
    <path class="cls-2" d="M529.89,277.2v-17.18h12.42v2.03h-10.15v5.26h9.5v2.02h-9.5v5.85h10.55v2.03h-12.82Z"/>
  </g>
  <g>
    <line class="cls-1" x1="206.32" y1="362.17" x2="137.03" y2="362.17"/>
    <path class="cls-2" d="M205.95,354.65c4.15,0,7.52,3.37,7.52,7.52s-3.37,7.52-7.52,7.52-7.52-3.37-7.52-7.52,3.37-7.52,7.52-7.52Z"/>
  </g>
  <g>
    <line class="cls-2" x1="258.18" y1="379" x2="258.18" y2="452.65"/>
    <g>
      <line class="cls-1" x1="258.18" y1="386.15" x2="258.18" y2="452.65"/>
      <path class="cls-2" d="M250.66,386.52c0-4.15,3.37-7.52,7.52-7.52s7.52,3.37,7.52,7.52-3.37,7.52-7.52,7.52c-4.15,0-7.52-3.37-7.52-7.52Z"/>
    </g>
  </g>
</svg>