<?xml version="1.0" encoding="UTF-8"?>
<svg id="Lag_1" xmlns="http://www.w3.org/2000/svg" version="1.1" viewBox="0 0 1600 354">
  <!-- Generator: Adobe Illustrator 30.1.0, SVG Export Plug-In . SVG Version: 2.1.1 Build 136)  -->
  <defs>
    <style>
      .st0 {
        fill: #fff;
      }
    </style>
  </defs>
  <path class="st0" d="M993,354h-26c-9.79-1.39-19.79-4.32-28.92-8.93-31.31-15.84-39.92-54.15-31.67-85.65,10.04-38.32,48.91-53.04,85.23-53.89l64.81-.1.03-61.16-144.05-.05.17-38,183.92.04v242.4s-38.84.14-38.84.14l-.53-32.53c-15.42,23.21-38.28,33.97-64.15,37.73ZM1055.87,262.92c.82-7.36.65-14.39.44-21.95l-65.35.09c-8.24.01-16.52,2.06-23.81,4.89-15.34,5.96-22.92,20.03-22.53,36.07s8.8,28.03,24.12,32.34c37.69,10.61,82.39-8.66,87.13-51.43Z"/>
  <polygon class="st0" points="260 5.23 259.79 56.29 49.78 314.4 260.16 314.49 260.18 354 5.81 354 5.8 302.14 214.67 45.21 0 45.23 0 5.23 260 5.23"/>
  <path class="st0" d="M641,354h-26c-27.79-4.17-52.44-17.55-68.65-41.31-8.43-12.35-14.35-25.26-18.17-39.99-11.07-42.69-7.18-94.7,19.19-131.4,23.84-33.18,62.21-45.65,101.9-38.52,24.12,4.34,43.43,18.01,57.26,38.06l.37-34.6,38.33.06v242.3s-38.32.22-38.32.22l-.39-36.34c-15.6,23.98-38.49,37.12-65.52,41.54ZM640.55,318.11c24.42-1.21,44.25-14.33,55.1-35.46,15.28-29.74,16.12-74.86,2.3-105.49-11.68-25.9-35.66-41.18-64-40.46-35.78.9-59.63,25.77-66.99,59.36-5.14,23.48-4.69,47.71,2.07,70.74,9.77,33.27,35.3,53.11,71.51,51.32Z"/>
  <path class="st0" d="M402,354h-27c-32.48-4.47-61.26-20.36-79.06-48.86-22.62-36.21-26.17-83.32-14.47-123.68,11.6-40.01,40.37-71.33,82.28-78.69,44.72-7.86,90.19,7.05,112.92,48.59,14.13,25.8,16.72,52.82,15.69,81.64h-176.13c.7,43.17,23.83,84.47,70.79,85.28,32.49.56,53.46-16.82,68.37-43.56l31.21,18.09c-19.24,35.86-45.84,55.08-84.61,61.19ZM452.26,199.2c-1.2-16.03-6.22-29.1-15.17-40.35-12.64-15.6-31.02-23.27-50.97-23.71-37.15-.82-67.08,26.61-69.24,64.11l135.38-.05Z"/>
  <path class="st0" d="M829,5.26l-.27,311.95,51.02.1-.02,36.69-59.27-.27c-8.58-.04-17.31-3.87-22.93-10.01-6.29-6.87-8.87-15.83-8.89-25.46l-.64-313.01h41Z"/>
  <polygon class="st0" points="1302.48 150.11 1179.53 150.06 1179.52 353.99 1139.46 353.99 1139.49 111.55 1342.52 111.57 1342.53 354 1302.47 354 1302.48 150.11"/>
  <path class="st0" d="M1560,0h40v348.76l-38.16-.08-.4-36.22c-15.72,24.5-38.68,37.08-65.44,41.54h-26c-26.24-3.83-49.66-16.32-65.91-38.02-27.52-36.78-32.28-89.83-21.13-133.05,10.48-40.6,38.6-73.6,81.26-80.55,37.02-6.03,72.73,4.84,95.76,36.37l.02-138.75ZM1550.65,282.65c15.27-29.7,16.12-74.9,2.31-105.49-11.69-25.9-35.67-41.18-64-40.46-35.79.91-59.66,25.77-67,59.36-7.71,35.3-3.98,84.77,27.02,108.85,29.01,22.54,80.85,18.22,101.66-22.26Z"/>
</svg>